<?xml version="1.0" encoding="UTF-8"?>
<svg xmlns="http://www.w3.org/2000/svg" xmlns:xlink="http://www.w3.org/1999/xlink" width="171px" height="55px" viewBox="0 0 171 55" version="1.1">
  <title>sustain Logo Copy</title>
  <defs>
    <linearGradient x1="0%" y1="50%" x2="100%" y2="50%" id="linearGradient-1">
      <stop stop-color="#DA322C" offset="0%"></stop>
      <stop stop-color="#223D5E" offset="48.8023451%"></stop>
      <stop stop-color="#1FA9D4" offset="100%"></stop>
    </linearGradient>
    <linearGradient x1="0%" y1="50%" x2="100%" y2="50%" id="linearGradient-2">
      <stop stop-color="#DA322C" offset="0%"></stop>
      <stop stop-color="#223D5E" offset="48.8023451%"></stop>
      <stop stop-color="#1FA9D4" offset="100%"></stop>
    </linearGradient>
    <linearGradient x1="0%" y1="44.7446343%" x2="100%" y2="44.7446343%" id="linearGradient-3">
      <stop stop-color="#DA322C" offset="0%"></stop>
      <stop stop-color="#223D5E" offset="48.8023451%"></stop>
      <stop stop-color="#1FA9D4" offset="100%"></stop>
    </linearGradient>
  </defs>
  <g id="Symbols" stroke="none" stroke-width="1" fill="none" fill-rule="evenodd">
    <g id="Navi-BG-weiß" transform="translate(-166.000000, -33.000000)" fill-rule="nonzero">
      <g id="sustain-Logo-Copy" transform="translate(166.000000, 33.000000)">
        <path d="M0,28.1472333 L0,25.4766222 C0,25.4766222 0,19.9338444 5.50194444,19.9338444 L61.5898246,19.9338444 C61.5898246,19.9338444 67.091769,19.9338444 67.091769,25.4867 L67.091769,28.1573111 C67.091769,28.1573111 67.091769,33.7101667 61.5898246,33.7101667 L5.50194444,33.7101667 C5.50194444,33.7101667 0,33.7000889 0,28.1472333" id="Path" fill="url(#linearGradient-1)"></path>
        <path d="M47.5503801,8.22346667 L47.5503801,5.55285556 C47.5503801,0 42.0584211,0 42.0584211,0 L5.50194444,0 C0,0 0,5.55285556 0,5.55285556 L0,8.22346667 C0,13.7662444 5.50194444,13.7662444 5.50194444,13.7662444 L42.0584211,13.7662444 C47.5603655,13.7662444 47.5603655,8.21338889 47.5603655,8.21338889 M67.1017544,8.21338889 L67.1017544,5.54277778 C67.091769,0 61.5898246,0 61.5898246,0 L58.9436988,0 C53.4517398,0 53.4517398,5.55285556 53.4517398,5.55285556 L53.4517398,8.22346667 C53.4517398,13.7763222 58.9536842,13.7763222 58.9536842,13.7763222 L61.5998099,13.7763222 C67.1017544,13.7763222 67.1017544,8.22346667 67.1017544,8.22346667" id="Shape" fill="url(#linearGradient-2)"></path>
        <path d="M13.6400292,48.0810778 L13.6400292,45.4104667 C13.6400292,45.4104667 13.6400292,39.8576111 8.1380848,39.8576111 L5.49195906,39.8576111 C5.49195906,39.8576111 0,39.8576111 0,45.4104667 L0,48.0810778 C0,48.0810778 0,53.6339333 5.50194444,53.6339333 L8.14807018,53.6339333 C8.14807018,53.6339333 13.6500146,53.6339333 13.6500146,48.0810778 M67.1017544,48.0810778 L67.1017544,45.4104667 C67.1017544,45.4104667 67.1017544,39.8576111 61.5998099,39.8576111 L25.033348,39.8576111 C25.033348,39.8576111 19.5314035,39.8576111 19.5314035,45.4104667 L19.5314035,48.0810778 C19.5314035,48.0810778 19.5314035,53.6339333 25.033348,53.6339333 L61.5898246,53.6339333 C61.5898246,53.6339333 67.091769,53.6339333 67.091769,48.0810778" id="Shape" fill="url(#linearGradient-2)"></path>
        <g id="Group" transform="translate(80.921520, 15.116667)">
          <path d="M73.8219152,8.39478889 L75.3496784,8.39478889 L75.3496784,17.9182889 L73.8518713,17.9182889 C73.5722807,17.9182889 73.4324854,18.0593778 73.4324854,18.3415556 L73.4324854,19.7423667 C73.4324854,20.0245444 73.5722807,20.1656333 73.8518713,20.1656333 L80.2624854,20.1656333 C80.542076,20.1656333 80.6818713,20.0245444 80.6818713,19.7423667 L80.6818713,18.3415556 C80.6818713,18.0593778 80.542076,17.9182889 80.2624854,17.9182889 L78.5150439,17.9182889 L78.5150439,11.3677333 C78.5150439,10.6421333 78.8245906,9.99715556 79.4436842,9.4328 C80.0627778,8.85836667 80.8416374,8.57618889 81.7902485,8.57618889 C82.7388596,8.57618889 83.3479678,8.84828889 83.6575146,9.40256667 C83.957076,9.95684444 84.1068567,10.8235333 84.1068567,12.0227889 L84.1068567,17.9182889 L82.748845,17.9182889 C82.4692544,17.9182889 82.3294591,18.0593778 82.3294591,18.3415556 L82.3294591,19.7423667 C82.3294591,20.0245444 82.4692544,20.1656333 82.748845,20.1656333 L88.9098246,20.1656333 C89.1894152,20.1656333 89.3292105,20.0245444 89.3292105,19.7423667 L89.3292105,18.3415556 C89.3292105,18.0593778 89.1894152,17.9182889 88.9098246,17.9182889 L87.2722222,17.9182889 L87.2722222,10.5917444 C87.2722222,7.36685556 85.8143567,5.74433333 82.8986257,5.74433333 C80.9414912,5.74433333 79.4336988,6.54047778 78.3752485,8.14284444 L78.125614,6.49008889 C78.0657018,6.20791111 77.9159211,6.06682222 77.6762719,6.06682222 L73.8319006,6.06682222 C73.5523099,6.06682222 73.4125146,6.20791111 73.4125146,6.49008889 L73.4125146,8.00175556 C73.4125146,8.26377778 73.5523099,8.40486667 73.8319006,8.40486667" id="Path" fill="#3C3C3B"></path>
          <path d="M68.2500731,4.0815 C68.8591813,4.0815 69.3584503,3.89002222 69.7279094,3.50706667 C70.0973684,3.12411111 70.297076,2.64037778 70.297076,2.05586667 C70.297076,1.47135556 70.1173392,0.977544444 69.7478801,0.584511111 C69.3784211,0.191477778 68.8891374,0 68.2800292,0 C67.6709211,0 67.1816374,0.191477778 66.8121784,0.584511111 C66.4427193,0.977544444 66.2629825,1.46127778 66.2629825,2.05586667 C66.2629825,2.65045556 66.4427193,3.13418889 66.802193,3.50706667 C67.1616667,3.89002222 67.6409649,4.0815 68.2600585,4.0815 M70.2271784,6.48001111 C70.2271784,6.19783333 70.087383,6.05674444 69.8077924,6.05674444 L65.5440351,6.05674444 C65.2644444,6.05674444 65.1246491,6.19783333 65.1246491,6.48001111 L65.1246491,7.96144444 C65.1246491,8.24362222 65.2644444,8.38471111 65.5440351,8.38471111 L67.0717982,8.38471111 L67.0717982,17.8981333 L65.2944006,17.8981333 C65.0148099,17.8981333 64.8750146,18.0392222 64.8750146,18.3214 L64.8750146,19.7222111 C64.8750146,20.0043889 65.0148099,20.1454778 65.2944006,20.1454778 L72.0145614,20.1454778 C72.294152,20.1454778 72.4339474,20.0043889 72.4339474,19.7222111 L72.4339474,18.3214 C72.4339474,18.0392222 72.294152,17.8981333 72.0145614,17.8981333 L70.2371637,17.8981333 L70.2371637,6.46993333 L70.2271784,6.48001111 Z M58.1149123,17.4647889 C57.5657164,17.9283667 56.8068275,18.1601556 55.8282602,18.1601556 C54.3404386,18.1601556 53.6015205,17.5051 53.6015205,16.1949889 C53.6015205,15.3383778 53.9010819,14.7538667 54.5002047,14.4313778 C54.8197368,14.2600556 55.1891959,14.0887333 55.5985965,13.9174111 C56.0179825,13.7460889 57.1263596,13.6654667 58.9337135,13.6654667 L58.9337135,15.8624222 C58.9337135,16.4670889 58.6641082,17.0112889 58.1149123,17.4748667 M57.4059503,11.7305333 C55.6585088,11.791 54.1507164,12.1134889 52.8825731,12.698 C51.3548099,13.3832889 50.5959211,14.6430111 50.5959211,16.4872444 C50.5959211,17.8981333 50.9953363,18.9159889 51.7841813,19.5508889 C52.5730263,20.1857889 53.5715643,20.5082778 54.7797953,20.5082778 C56.6969883,20.5082778 58.1648392,19.8129111 59.183348,18.4322556 L59.3830556,19.7423667 C59.4229971,20.0245444 59.5627924,20.1656333 59.8024415,20.1656333 L63.1375585,20.1656333 C63.4171491,20.1656333 63.5669298,20.0245444 63.5669298,19.7423667 L63.5669298,18.3415556 C63.5669298,18.0593778 63.4271345,17.9182889 63.1375585,17.9182889 L61.9293275,17.9182889 L61.9293275,10.4204222 C61.9293275,7.30638889 60.2417982,5.74433333 56.8767251,5.74433333 C55.2790643,5.74433333 53.9609942,6.06682222 52.9225146,6.7118 C51.8840351,7.35677778 51.3348392,8.37463333 51.2549561,9.76536667 C51.2150146,10.0475444 51.3448246,10.1886333 51.6543713,10.1886333 L53.4617251,10.1886333 C53.6913889,10.1886333 53.8311842,10.0475444 53.8811111,9.76536667 C54.140731,8.54595556 54.9195906,7.94128889 56.1977193,7.94128889 C56.8767251,7.94128889 57.3959649,8.02191111 57.7454532,8.17307778 C58.4943567,8.51572222 58.8738012,9.36225556 58.8738012,10.7126778 L58.8738012,11.7103778 C58.2547076,11.7305333 57.765424,11.7406111 57.4059503,11.7406111" id="Shape" fill="url(#linearGradient-3)"></path>
          <path d="M0.0399415205,10.1281667 C0.0399415205,11.0956333 0.279590643,11.8817 0.758888889,12.4762889 C1.23818713,13.0708778 1.82732456,13.4941444 2.52630117,13.7259333 C3.22527778,13.9678 3.91426901,14.1794333 4.60326023,14.3709111 C5.29225146,14.5623889 5.87140351,14.8344889 6.35070175,15.1771333 C6.83,15.5298556 7.06964912,16.0135889 7.06964912,16.6182556 C7.06964912,17.8175111 6.23087719,18.4121 4.55333333,18.4121 C3.6147076,18.4121 2.88577485,18.2206222 2.37652047,17.8376667 L2.45640351,16.3562333 C2.47637427,16.0740556 2.34656433,15.9329667 2.0569883,15.9329667 L0.419385965,15.9329667 C0.139795322,15.9329667 0,16.0740556 0,16.3562333 L0,19.3795667 C0,19.6617444 0.119824561,19.8431444 0.369459064,19.9237667 C1.76741228,20.3067222 3.08548246,20.4982 4.35362573,20.4982 C6.16097953,20.4982 7.55893275,20.0950889 8.56745614,19.2888667 C9.56599415,18.4826444 10.0652632,17.3539333 10.0652632,15.9128111 C10.0652632,14.9655 9.81562865,14.1794333 9.32634503,13.5646889 C8.8370614,12.9499444 8.2379386,12.5065222 7.53896199,12.2545778 C6.83998538,12.0026333 6.13102339,11.7708444 5.43204678,11.5692889 C4.73307018,11.3677333 4.14393275,11.1057111 3.65464912,10.7832222 C3.1653655,10.4607333 2.91573099,10.0273889 2.91573099,9.47311111 C2.91573099,8.40486667 3.6646345,7.88082222 5.1724269,7.88082222 C5.85143275,7.88082222 6.47052632,8.03198889 7.03969298,8.33432222 L6.89989766,9.78552222 C6.83998538,10.0677 6.96979532,10.2087889 7.26935673,10.2087889 L8.90695906,10.2087889 C9.18654971,10.2087889 9.32634503,10.0677 9.32634503,9.78552222 L9.32634503,6.76218889 C9.32634503,6.50016667 9.19653509,6.32884444 8.92692982,6.24822222 C7.85849415,5.90557778 6.5803655,5.73425556 5.11251462,5.73425556 C3.64466374,5.73425556 2.42644737,6.15752222 1.46785088,6.9839 C0.509254386,7.82035556 0.0299561404,8.86844444 0.0299561404,10.1180889" id="Path" fill="#3C3C3B"></path>
          <path d="M25.2729971,6.48001111 C25.2729971,6.19783333 25.1332018,6.05674444 24.8536111,6.05674444 L20.3402193,6.05674444 C20.0606287,6.05674444 19.9208333,6.19783333 19.9208333,6.48001111 L19.9208333,7.96144444 C19.9208333,8.24362222 20.0606287,8.38471111 20.3402193,8.38471111 L22.117617,8.38471111 L22.117617,15.1670556 C22.117617,15.8926556 21.8080702,16.5376333 21.1889766,17.1019889 C20.569883,17.6764222 19.781038,17.9586 18.8324269,17.9586 C17.8838158,17.9586 17.2647222,17.7167333 16.9651608,17.233 C16.6755848,16.7492667 16.5258041,15.9329667 16.5258041,14.7941778 L16.5258041,6.46993333 C16.5258041,6.18775556 16.3860088,6.04666667 16.1064181,6.04666667 L11.872617,6.04666667 C11.5930263,6.04666667 11.453231,6.18775556 11.453231,6.46993333 L11.453231,7.95136667 C11.453231,8.23354444 11.5930263,8.37463333 11.872617,8.37463333 L13.370424,8.37463333 L13.370424,15.6407111 C13.370424,18.8656 14.8981871,20.4881222 17.9437281,20.4881222 C19.9008626,20.4881222 21.4785526,19.7020556 22.6867836,18.1198444 L22.9364181,19.7121333 C22.9963304,19.9943111 23.1361257,20.1354 23.3558041,20.1354 L26.5211696,20.1354 C26.8007602,20.1354 26.9505409,19.9943111 26.9505409,19.7121333 L26.9505409,18.3113222 C26.9505409,18.0291444 26.8107456,17.8880556 26.5211696,17.8880556 L25.2829825,17.8880556 L25.2829825,6.45985556 L25.2729971,6.48001111 Z" id="Path" fill="#3C3C3B"></path>
          <path d="M28.8677339,10.1281667 C28.8677339,11.0956333 29.107383,11.8817 29.5866813,12.4762889 C30.0659795,13.0708778 30.655117,13.4941444 31.3540936,13.7259333 C32.0530702,13.9678 32.7420614,14.1794333 33.4310526,14.3709111 C34.1200439,14.5623889 34.6991959,14.8344889 35.1784942,15.1771333 C35.6577924,15.5298556 35.8974415,16.0135889 35.8974415,16.6182556 C35.8974415,17.8175111 35.0586696,18.4121 33.3811257,18.4121 C32.4425,18.4121 31.7135673,18.2206222 31.2043129,17.8376667 L31.2841959,16.3562333 C31.3041667,16.0740556 31.1743567,15.9329667 30.8847807,15.9329667 L29.2471784,15.9329667 C28.9675877,15.9329667 28.8277924,16.0740556 28.8277924,16.3562333 L28.8277924,19.3795667 C28.8277924,19.6617444 28.947617,19.8431444 29.1972515,19.9237667 C30.5852193,20.3067222 31.9132749,20.4982 33.1814181,20.4982 C34.9887719,20.4982 36.3867251,20.0950889 37.3852632,19.2888667 C38.3838012,18.4826444 38.8830702,17.3539333 38.8830702,15.9128111 C38.8830702,14.9655 38.6434211,14.1794333 38.144152,13.5646889 C37.6548684,12.9499444 37.0557456,12.5065222 36.3467836,12.2545778 C35.6378216,12.0026333 34.938845,11.7708444 34.2398684,11.5692889 C33.5408918,11.3677333 32.9517544,11.1057111 32.4624708,10.7832222 C31.9731871,10.4607333 31.7235526,10.0273889 31.7235526,9.47311111 C31.7235526,8.40486667 32.4824415,7.88082222 33.9802485,7.88082222 C34.6592544,7.88082222 35.278348,8.03198889 35.8475146,8.33432222 L35.7077193,9.78552222 C35.647807,10.0677 35.777617,10.2087889 36.0771784,10.2087889 L37.7147807,10.2087889 C37.9943713,10.2087889 38.1341667,10.0677 38.1341667,9.78552222 L38.1341667,6.76218889 C38.1341667,6.50016667 38.0043567,6.32884444 37.7347515,6.24822222 C36.6663158,5.90557778 35.3881871,5.73425556 33.9203363,5.73425556 C32.4524854,5.73425556 31.234269,6.15752222 30.2756725,6.9839 C29.317076,7.82035556 28.8377778,8.86844444 28.8377778,10.1180889" id="Path" fill="#3C3C3B"></path>
          <path d="M47.9298246,8.39478889 C48.2094152,8.39478889 48.3492105,8.2537 48.3492105,7.97152222 L48.3492105,6.49008889 C48.3492105,6.20791111 48.2094152,6.06682222 47.9298246,6.06682222 L45.0740058,6.06682222 L45.0740058,2.21711111 C45.0740058,1.93493333 44.9342105,1.79384444 44.6546199,1.79384444 L42.3380117,1.79384444 C42.0584211,1.79384444 41.9186257,1.93493333 41.9186257,2.21711111 L41.9186257,6.06682222 L40.3109795,6.06682222 C40.0313889,6.06682222 39.8915936,6.20791111 39.8915936,6.49008889 L39.8915936,7.97152222 C39.8915936,8.2537 40.0313889,8.39478889 40.3109795,8.39478889 L41.9186257,8.39478889 L41.9186257,15.2678333 C41.9186257,16.0639778 41.9585673,16.8298889 42.0284649,17.5454111 C42.0883772,18.0795333 42.2980702,18.6237333 42.6775146,19.1981667 C43.2067398,20.0749333 44.3051316,20.5082778 45.9826754,20.5082778 C47.230848,20.5082778 48.2992836,20.2764889 49.1979678,19.8229889 C49.3876901,19.7121333 49.4775585,19.6012778 49.4775585,19.4904222 C49.4775585,19.3795667 49.4775585,19.3090222 49.4476023,19.2485556 L48.938348,17.9384444 C48.8384942,17.7066556 48.6986988,17.6361111 48.4890058,17.7066556 C47.9098538,17.9686778 47.3007456,18.1097667 46.681652,18.1097667 C46.0625585,18.1097667 45.6331871,17.9082111 45.4135088,17.5151778 C45.183845,17.1120667 45.0740058,16.4670889 45.0740058,15.5802444 L45.0740058,8.39478889 L47.9298246,8.39478889 L47.9298246,8.39478889 Z" id="Path" fill="#3C3C3B"></path>
        </g>
        <g id="Group" transform="translate(2.925716, 2.327967)">
          <path d="M143.879342,48.4841889 L143.879342,48.1314667 L141.392982,48.1314667 C141.392982,48.1314667 141.392982,48.5345778 141.392982,48.5345778 L143.320161,48.5345778 C143.320161,48.5345778 141.343056,50.9532444 141.343056,50.9532444 L141.343056,51.3059667 L143.939254,51.3059667 C143.939254,51.3059667 143.939254,50.9028556 143.939254,50.9028556 L141.912222,50.9028556 C141.912222,50.9028556 143.889327,48.4841889 143.889327,48.4841889 L143.879342,48.4841889 Z M139.316023,48.1012333 C138.736871,48.1012333 138.317485,48.3330222 138.087822,48.8268333 L138.087822,48.1213889 L137.618509,48.1213889 L137.618509,51.3160444 L138.087822,51.3160444 L138.087822,49.6028222 C138.137749,48.9981556 138.527178,48.5849667 139.146272,48.5849667 C139.705453,48.5849667 140.044956,48.9175333 140.044956,49.4818889 L140.044956,51.3261222 L140.514269,51.3261222 L140.514269,49.3609556 C140.514269,48.5950444 140.064927,48.1213889 139.316023,48.1213889 M134.123626,49.5322778 C134.193523,48.9276111 134.63288,48.5345778 135.232003,48.5345778 C135.831126,48.5345778 136.260497,48.9175333 136.290453,49.5322778 L134.133611,49.5322778 L134.123626,49.5322778 Z M135.232003,48.1314667 C134.313348,48.1314667 133.664298,48.7865222 133.664298,49.7439111 C133.664298,50.7013 134.303363,51.3563556 135.232003,51.3563556 C135.761228,51.3563556 136.200585,51.1648778 136.500146,50.8222333 L136.240526,50.5400556 C135.990892,50.8020778 135.651389,50.9431667 135.261959,50.9431667 C134.652851,50.9431667 134.203509,50.5501333 134.11364,49.9253111 L136.689868,49.9253111 C136.739795,48.8369111 136.230541,48.1213889 135.212032,48.1314667 M131.237851,50.792 C130.598787,50.792 130.15943,50.3183444 130.149444,49.6632889 C130.149444,49.0082333 130.598787,48.5345778 131.237851,48.5345778 C131.876915,48.5345778 132.316272,48.9981556 132.316272,49.6632889 C132.316272,50.3284222 131.86693,50.792 131.237851,50.792 M132.785585,48.1415444 L132.316272,48.1415444 L132.316272,48.7865222 C132.086608,48.3632556 131.677208,48.1213889 131.137997,48.1213889 C130.28924,48.1213889 129.710088,48.7562889 129.710088,49.6431333 C129.710088,50.5299778 130.299225,51.1850333 131.147982,51.1850333 C131.687193,51.1850333 132.086608,50.9431667 132.316272,50.5199 L132.316272,51.0036333 C132.316272,51.6687667 131.86693,52.0920333 131.177939,52.0920333 C130.758553,52.0920333 130.429035,51.9509444 130.119488,51.6889222 L129.89981,52.0517222 C130.279254,52.3439778 130.69864,52.5052222 131.197909,52.5153 C132.156506,52.5153 132.785585,51.9307889 132.785585,50.9935556 L132.785585,48.1314667 L132.785585,48.1415444 Z M128.771462,48.1415444 L128.312135,48.1415444 L128.312135,51.3362 L128.771462,51.3362 L128.771462,48.1415444 Z M128.531813,46.9019778 C128.362061,46.9019778 128.222266,47.0430667 128.222266,47.2244667 C128.222266,47.4058667 128.352076,47.5469556 128.531813,47.5469556 C128.71155,47.5469556 128.84136,47.4058667 128.84136,47.2244667 C128.84136,47.0430667 128.71155,46.9019778 128.531813,46.9019778 M127.014035,46.8415111 L126.544722,46.8415111 L126.544722,51.3362 L127.014035,51.3362 L127.014035,46.8415111 Z M125.226652,46.8415111 L124.757339,46.8415111 L124.757339,51.3362 L125.226652,51.3362 L125.226652,46.8415111 Z M121.222515,49.5322778 C121.292412,48.9276111 121.731769,48.5345778 122.330892,48.5345778 C122.930015,48.5345778 123.359386,48.9175333 123.389342,49.5322778 L121.2325,49.5322778 L121.222515,49.5322778 Z M122.330892,48.1314667 C121.412237,48.1314667 120.763187,48.7865222 120.763187,49.7439111 C120.763187,50.7013 121.402251,51.3563556 122.330892,51.3563556 C122.860117,51.3563556 123.299474,51.1648778 123.599035,50.8222333 L123.339415,50.5400556 C123.089781,50.8020778 122.750278,50.9431667 122.360848,50.9431667 C121.75174,50.9431667 121.302398,50.5501333 121.212529,49.9253111 L123.788757,49.9253111 C123.838684,48.8369111 123.32943,48.1213889 122.310921,48.1314667 M120.154079,50.7315333 C119.984327,50.8423889 119.814576,50.8927778 119.644825,50.8927778 C119.375219,50.8927778 119.225439,50.7516889 119.225439,50.3586556 L119.225439,48.6252778 L120.223977,48.6252778 L120.223977,48.2322444 L119.225439,48.2322444 C119.225439,48.2322444 119.225439,47.3957889 119.225439,47.3957889 L118.766111,47.3957889 L118.766111,48.2423222 L118.306784,48.2423222 L118.306784,48.6252778 L118.766111,48.6252778 L118.766111,50.4493556 C118.766111,51.0741778 119.105614,51.3563556 119.564942,51.3563556 C119.814576,51.3563556 120.054225,51.2656556 120.283889,51.1144889 L120.154079,50.7315333 Z M116.289737,48.1213889 C115.710585,48.1213889 115.291199,48.3531778 115.061535,48.8469889 L115.061535,48.1415444 L114.592222,48.1415444 L114.592222,51.3362 L115.061535,51.3362 L115.061535,49.6229778 C115.111462,49.0183111 115.500892,48.6051222 116.119985,48.6051222 C116.679167,48.6051222 117.01867,48.9376889 117.01867,49.5020444 L117.01867,51.3462778 L117.487982,51.3462778 L117.487982,49.3811111 C117.487982,48.6152 117.048626,48.1415444 116.289737,48.1415444 M113.274152,47.1136111 L112.794854,47.1136111 L112.794854,51.3563556 L113.274152,51.3563556 L113.274152,47.1136111 Z M107.462661,49.5524333 C107.532558,48.9477667 107.96193,48.5547333 108.561053,48.5547333 C109.160175,48.5547333 109.589547,48.9376889 109.619503,49.5524333 L107.462661,49.5524333 Z M108.561053,48.1516222 C107.642398,48.1516222 106.993348,48.8066778 106.993348,49.7640667 C106.993348,50.7214556 107.632412,51.3765111 108.561053,51.3765111 C109.090278,51.3765111 109.529635,51.1850333 109.829196,50.8423889 L109.569576,50.5602111 C109.319942,50.8222333 108.980439,50.9633222 108.591009,50.9633222 C107.981901,50.9633222 107.532558,50.5702889 107.44269,49.9454667 L110.018918,49.9454667 C110.068845,48.8570667 109.559591,48.1415444 108.541082,48.1516222 M104.926374,48.1516222 C104.347222,48.1516222 103.907865,48.3834111 103.698173,48.8873 L103.698173,46.8717444 L103.22886,46.8717444 L103.22886,51.3664333 L103.698173,51.3664333 L103.698173,49.7943 C103.698173,49.1090111 104.097588,48.6353556 104.766608,48.6252778 C105.325789,48.6252778 105.665292,48.9578444 105.665292,49.5222 L105.665292,51.3664333 L106.134605,51.3664333 L106.134605,49.4012667 C106.134605,48.6353556 105.695249,48.1617 104.93636,48.1617 M100.972164,48.1617 C100.063494,48.1617 99.4044591,48.8167556 99.4044591,49.7741444 C99.4044591,50.7315333 100.053509,51.3865889 100.972164,51.3865889 C101.52136,51.3865889 101.960716,51.1850333 102.240307,50.8323111 L101.970702,50.5400556 C101.751023,50.8121556 101.41152,50.9532444 100.992135,50.9532444 C100.343085,50.9532444 99.8737719,50.4695111 99.8737719,49.7741444 C99.8737719,49.0787778 100.343085,48.6051222 100.992135,48.6051222 C101.381564,48.6051222 101.691111,48.7462111 101.93076,48.978 L102.19038,48.6454333 C101.900804,48.3431 101.481418,48.1617 100.972164,48.1717778 M98.4658333,48.1818556 L98.0065058,48.1818556 L98.0065058,51.3765111 L98.4658333,51.3765111 L98.4658333,48.1818556 Z M98.2361696,46.9422889 C98.0564327,46.9422889 97.9266228,47.0833778 97.9266228,47.2647778 C97.9266228,47.4461778 98.0564327,47.5872667 98.2361696,47.5872667 C98.4159064,47.5872667 98.5457164,47.4461778 98.5457164,47.2647778 C98.5457164,47.0833778 98.4159064,46.9422889 98.2361696,46.9422889 M96.7183918,46.8818222 L96.2490789,46.8818222 L96.2490789,51.3765111 L96.7183918,51.3765111 L96.7183918,46.8818222 Z M95.2605263,50.7718444 C95.0907749,50.8827 94.9210234,50.9330889 94.7612573,50.9330889 C94.491652,50.9330889 94.3418713,50.792 94.3418713,50.3989667 L94.3418713,48.6655889 L95.3404094,48.6655889 L95.3404094,48.2725556 L94.3418713,48.2725556 C94.3418713,48.2725556 94.3418713,47.4361 94.3418713,47.4361 L93.8825439,47.4361 L93.8825439,48.2826333 L93.4232164,48.2826333 L93.4232164,48.6655889 L93.8825439,48.6655889 L93.8825439,50.4896667 C93.8825439,51.1144889 94.2220468,51.3966667 94.6913596,51.3966667 C94.9409942,51.3966667 95.1806433,51.3059667 95.410307,51.1548 L95.2804971,50.7718444 L95.2605263,50.7718444 Z M91.7656433,48.1617 C91.1864912,48.1617 90.6672515,48.4136444 90.6672515,49.0283889 C90.6672515,50.1571 92.4346637,49.7640667 92.414693,50.5299778 C92.414693,50.8423889 92.1051462,50.9834778 91.7356871,50.9834778 C91.3662281,50.9834778 90.9568275,50.8323111 90.6872222,50.5803667 L90.5074854,50.9330889 C90.8070468,51.2253444 91.2663743,51.3765111 91.7157164,51.3765111 C92.3248246,51.3765111 92.8740205,51.0943333 92.8740205,50.4695111 C92.8740205,49.3206444 91.1066082,49.6935222 91.1066082,48.978 C91.1066082,48.6857444 91.3762135,48.5547333 91.7257018,48.5547333 C92.0152778,48.5547333 92.3348099,48.6555111 92.5844444,48.8167556 L92.7641813,48.4438778 C92.5045614,48.2624778 92.1351023,48.1516222 91.7556579,48.1516222 M88.5503509,48.1516222 C87.9711988,48.1516222 87.5518129,48.3834111 87.3221491,48.8772222 L87.3221491,48.1717778 L86.8528363,48.1717778 L86.8528363,51.3664333 L87.3221491,51.3664333 L87.3221491,49.6532111 C87.372076,49.0485444 87.7615058,48.6353556 88.3805994,48.6353556 C88.9397807,48.6353556 89.2692982,48.9679222 89.2692982,49.5322778 L89.2692982,51.3765111 L89.7386111,51.3765111 L89.7386111,49.4113444 C89.7386111,48.6454333 89.2992544,48.1717778 88.5403655,48.1717778 M85.584693,48.1919333 L85.1153801,48.1919333 L85.1153801,49.7640667 C85.1153801,50.4392778 84.7359357,50.9230111 84.0769006,50.9330889 C83.5277047,50.9330889 83.1981871,50.6005222 83.1981871,50.0361667 L83.1981871,48.1919333 L82.7288743,48.1919333 L82.7288743,50.1571 C82.7288743,50.9230111 83.1782164,51.3966667 83.9071491,51.3966667 C84.4763158,51.3966667 84.8957018,51.1548 85.1053947,50.6609889 L85.1053947,51.3765111 L85.5747076,51.3765111 L85.5747076,48.1818556 L85.584693,48.1919333 Z M84.6860088,47.5570333 C84.8457749,47.5570333 84.9755848,47.4260222 84.9755848,47.2446222 C84.9755848,47.0632222 84.8457749,46.9322111 84.6860088,46.9322111 C84.5262427,46.9322111 84.3964327,47.0632222 84.3964327,47.2446222 C84.3964327,47.4260222 84.5262427,47.5570333 84.6860088,47.5570333 M83.6874708,47.5570333 C83.8472368,47.5570333 83.9770468,47.4260222 83.9770468,47.2446222 C83.9770468,47.0632222 83.8472368,46.9322111 83.6874708,46.9322111 C83.5277047,46.9322111 83.3978947,47.0632222 83.3978947,47.2446222 C83.3978947,47.4260222 83.5277047,47.5570333 83.6874708,47.5570333 M81.4307749,51.3865889 L82.0199123,51.3865889 L80.2325292,48.9880778 L81.9000877,47.1438444 L81.3309211,47.1438444 L79.0742251,49.5826667 L79.0742251,47.1438444 L78.5949269,47.1438444 L78.5949269,51.3865889 L79.0742251,51.3865889 L79.0742251,50.2780333 L79.8930263,49.3710333 L81.4407602,51.3765111 L81.4307749,51.3865889 Z" id="Shape" fill="#3C3C3B"></path>
          <path d="M166.436316,40.8452333 L165.967003,40.8452333 L165.967003,44.0398889 L166.436316,44.0398889 L166.436316,42.3468222 C166.496228,41.722 166.905629,41.2987333 167.574649,41.3088111 L167.574649,40.8351556 C167.035439,40.8351556 166.646009,41.0971778 166.436316,41.5607556 L166.436316,40.8553111 L166.436316,40.8452333 Z M164.708845,40.8452333 L164.239532,40.8452333 L164.239532,42.4173667 C164.239532,43.0925778 163.860088,43.5763111 163.201053,43.5863889 C162.651857,43.5863889 162.322339,43.2538222 162.322339,42.6894667 L162.322339,40.8452333 L161.853026,40.8452333 L161.853026,42.8104 C161.853026,43.5763111 162.302368,44.0499667 163.031301,44.0499667 C163.600468,44.0499667 164.019854,43.8081 164.229547,43.3142889 L164.229547,44.0298111 L164.69886,44.0298111 L164.69886,40.8351556 L164.708845,40.8452333 Z M163.810161,40.2103333 C163.969927,40.2103333 164.099737,40.0793222 164.099737,39.8979222 C164.099737,39.7165222 163.969927,39.5855111 163.810161,39.5855111 C163.650395,39.5855111 163.520585,39.7165222 163.520585,39.8979222 C163.520585,40.0793222 163.650395,40.2103333 163.810161,40.2103333 M162.811623,40.2103333 C162.971389,40.2103333 163.101199,40.0793222 163.101199,39.8979222 C163.101199,39.7165222 162.971389,39.5855111 162.811623,39.5855111 C162.651857,39.5855111 162.522047,39.7165222 162.522047,39.8979222 C162.522047,40.0793222 162.651857,40.2103333 162.811623,40.2103333 M160.974313,39.9583889 C161.134079,39.9583889 161.313816,40.0188556 161.453611,40.1196333 L161.643333,39.7366778 C161.453611,39.5955889 161.203977,39.5149667 160.964327,39.5149667 C160.435102,39.5149667 159.955804,39.8878444 159.955804,40.5832111 L159.955804,40.9359333 L159.546404,40.9359333 L159.546404,41.3289667 L159.955804,41.3289667 L159.955804,44.0398889 L160.415132,44.0398889 L160.415132,41.3289667 L161.323801,41.3289667 L161.323801,40.9359333 L160.415132,40.9359333 L160.415132,40.5227444 C160.415132,40.1498667 160.664766,39.9483111 160.974313,39.9483111 M155.811871,42.0444889 L154.973099,40.8351556 L154.433889,40.8351556 L155.502325,42.3871333 L154.354006,44.0298111 L154.883231,44.0298111 L155.811871,42.7297778 L156.710556,44.0298111 L157.259751,44.0298111 L156.131404,42.3871333 L157.189854,40.8351556 L156.670614,40.8351556 L155.821857,42.0444889 L155.811871,42.0444889 Z M151.468231,42.2258889 C151.538129,41.6212222 151.977485,41.2281889 152.576608,41.2281889 C153.175731,41.2281889 153.605102,41.6111444 153.635058,42.2258889 L151.478216,42.2258889 L151.468231,42.2258889 Z M152.576608,40.8250778 C151.657953,40.8250778 151.008904,41.4801333 151.008904,42.4375222 C151.008904,43.3949111 151.647968,44.0499667 152.576608,44.0499667 C153.105833,44.0499667 153.54519,43.8584889 153.844751,43.5158444 L153.585132,43.2336667 C153.335497,43.4956889 152.995994,43.6367778 152.606564,43.6367778 C151.997456,43.6367778 151.548114,43.2437444 151.458246,42.6189222 L154.034474,42.6189222 C154.084401,41.5305222 153.575146,40.815 152.556637,40.8250778 M148.412705,43.6267 C147.743684,43.6267 147.264386,43.1328889 147.264386,42.4375222 C147.264386,41.7421556 147.743684,41.2382667 148.412705,41.2382667 C149.081725,41.2382667 149.551038,41.7421556 149.551038,42.4375222 C149.551038,43.1328889 149.07174,43.6267 148.412705,43.6267 M150.020351,39.5351222 L149.551038,39.5351222 L149.551038,41.5305222 C149.311389,41.0770222 148.882018,40.815 148.312851,40.815 C147.414167,40.815 146.795073,41.4700556 146.795073,42.4274444 C146.795073,43.3848333 147.424152,44.0499667 148.322836,44.0499667 C148.892003,44.0499667 149.321374,43.7879444 149.551038,43.3445222 L149.551038,44.0298111 L150.020351,44.0298111 L150.020351,39.5351222 L150.020351,39.5351222 Z M144.74807,40.815 C144.168918,40.815 143.749532,41.0467889 143.519868,41.5406 L143.519868,40.8351556 L143.050556,40.8351556 L143.050556,44.0298111 L143.519868,44.0298111 L143.519868,42.3165889 C143.569795,41.7119222 143.959225,41.2987333 144.578319,41.2987333 C145.1375,41.2987333 145.477003,41.6313 145.477003,42.1956556 L145.477003,44.0398889 L145.946316,44.0398889 L145.946316,42.0747222 C145.946316,41.3088111 145.506959,40.8351556 144.74807,40.8351556 M141.732485,39.8072222 L141.253187,39.8072222 L141.253187,44.0499667 L141.732485,44.0499667 L141.732485,39.8072222 Z M140.114854,42.0344111 L138.706915,42.0344111 L138.706915,42.3871333 L140.114854,42.3871333 L140.114854,42.0344111 Z M136.889576,40.8351556 C136.310424,40.8351556 135.791184,41.0871 135.791184,41.7018444 C135.791184,42.8305556 137.558596,42.4375222 137.538626,43.2135111 C137.538626,43.5259222 137.229079,43.6670111 136.85962,43.6670111 C136.490161,43.6670111 136.08076,43.5158444 135.811155,43.2639 L135.631418,43.6166222 C135.93098,43.9088778 136.390307,44.0701222 136.839649,44.0701222 C137.448757,44.0701222 137.997953,43.7879444 137.997953,43.1631222 C137.997953,42.0142556 136.230541,42.3770556 136.230541,41.6716111 C136.230541,41.3793556 136.500146,41.2483444 136.849635,41.2483444 C137.149196,41.2483444 137.458743,41.3491222 137.708377,41.5103667 L137.888114,41.1374889 C137.628494,40.9560889 137.259035,40.8452333 136.879591,40.8452333 M135.082222,43.4553778 C134.912471,43.5662333 134.742719,43.6166222 134.582953,43.6166222 C134.313348,43.6166222 134.163567,43.4755333 134.163567,43.0825 L134.163567,41.3491222 L135.162105,41.3491222 L135.162105,40.9560889 L134.163567,40.9560889 C134.163567,40.9560889 134.163567,40.1196333 134.163567,40.1196333 L133.70424,40.1196333 L133.70424,40.9560889 L133.244912,40.9560889 L133.244912,41.3390444 L133.70424,41.3390444 L133.70424,43.1631222 C133.70424,43.7879444 134.043743,44.0701222 134.513056,44.0701222 C134.76269,44.0701222 135.002339,43.9794222 135.222018,43.8282556 L135.092208,43.4453 L135.082222,43.4553778 Z M132.326257,40.8653889 L131.86693,40.8653889 L131.86693,44.0600444 L132.326257,44.0600444 L132.326257,40.8653889 Z M132.096594,39.6258222 C131.926842,39.6258222 131.787047,39.7669111 131.787047,39.9483111 C131.787047,40.1297111 131.916857,40.2708 132.096594,40.2708 C132.27633,40.2708 132.40614,40.1297111 132.40614,39.9483111 C132.40614,39.7669111 132.27633,39.6258222 132.096594,39.6258222 M128.362061,42.2561222 C128.431959,41.6514556 128.86133,41.2584222 129.470439,41.2584222 C130.079547,41.2584222 130.498933,41.6413778 130.528889,42.2561222 L128.372047,42.2561222 L128.362061,42.2561222 Z M129.470439,40.8553111 C128.551784,40.8553111 127.902734,41.5103667 127.902734,42.4677556 C127.902734,43.4251444 128.541798,44.0802 129.470439,44.0802 C129.999664,44.0802 130.43902,43.8887222 130.738582,43.5460778 L130.478962,43.2639 C130.229327,43.5259222 129.889825,43.6670111 129.500395,43.6670111 C128.891287,43.6670111 128.441944,43.2739778 128.352076,42.6491556 L130.928304,42.6491556 C130.978231,41.5607556 130.468977,40.8452333 129.450468,40.8553111 M125.945599,42.4476 L127.02402,44.0600444 L127.583202,44.0600444 L126.275117,42.1049556 L127.453392,40.8653889 L126.904196,40.8653889 L125.276579,42.4979889 L125.276579,39.5653556 L124.807266,39.5653556 L124.807266,44.0600444 L125.276579,44.0600444 L125.276579,43.1429667 L125.945599,42.4476 L125.945599,42.4476 Z M122.051301,43.5158444 C121.412237,43.5158444 120.97288,43.0421889 120.962895,42.3871333 C120.962895,41.7320778 121.412237,41.2584222 122.051301,41.2584222 C122.690365,41.2584222 123.129722,41.722 123.129722,42.3871333 C123.129722,43.0522667 122.68038,43.5158444 122.051301,43.5158444 M123.599035,40.8653889 L123.129722,40.8653889 L123.129722,41.5103667 C122.900058,41.0871 122.490658,40.8452333 121.951447,40.8452333 C121.10269,40.8452333 120.523538,41.4801333 120.523538,42.3669778 C120.523538,43.2538222 121.112675,43.9088778 121.961433,43.9088778 C122.500643,43.9088778 122.900058,43.6670111 123.129722,43.2437444 L123.129722,43.7274778 C123.129722,44.3926111 122.68038,44.8158778 121.991389,44.8158778 C121.572003,44.8158778 121.242485,44.6747889 120.932939,44.4127667 L120.71326,44.7755667 C121.092705,45.0678222 121.512091,45.2290667 122.01136,45.2391444 C122.969956,45.2391444 123.599035,44.6546333 123.599035,43.7174 L123.599035,40.8553111 L123.599035,40.8653889 Z M119.584912,40.8653889 L119.125585,40.8653889 L119.125585,44.0600444 L119.584912,44.0600444 L119.584912,40.8653889 Z M119.355249,39.6258222 C119.185497,39.6258222 119.045702,39.7669111 119.045702,39.9483111 C119.045702,40.1297111 119.175512,40.2708 119.355249,40.2708 C119.534985,40.2708 119.664795,40.1297111 119.664795,39.9483111 C119.664795,39.7669111 119.534985,39.6258222 119.355249,39.6258222 M118.166988,43.4553778 C117.997237,43.5662333 117.827485,43.6166222 117.667719,43.6166222 C117.398114,43.6166222 117.248333,43.4755333 117.248333,43.0825 L117.248333,41.3491222 L118.246871,41.3491222 L118.246871,40.9560889 L117.248333,40.9560889 C117.248333,40.9560889 117.248333,40.1196333 117.248333,40.1196333 L116.789006,40.1196333 L116.789006,40.9560889 L116.329678,40.9560889 L116.329678,41.3390444 L116.789006,41.3390444 L116.789006,43.1631222 C116.789006,43.7879444 117.128509,44.0701222 117.597822,44.0701222 C117.847456,44.0701222 118.087105,43.9794222 118.316769,43.8282556 L118.186959,43.4453 L118.166988,43.4553778 Z M115.381067,39.5653556 L114.911754,39.5653556 L114.911754,44.0600444 L115.381067,44.0600444 L115.381067,39.5653556 Z M112.195731,43.6670111 C111.756374,43.6670111 111.466798,43.4352222 111.466798,43.0825 C111.466798,42.7297778 111.746389,42.5685333 112.275614,42.5685333 L113.264167,42.5685333 L113.264167,42.9514889 C113.144342,43.3949111 112.734942,43.6670111 112.205716,43.6670111 M113.274152,44.0600444 L113.73348,44.0600444 L113.73348,41.9537889 C113.723494,41.2685 113.284137,40.8553111 112.505278,40.8553111 C111.966067,40.8553111 111.626564,41.0165556 111.217164,41.2886556 L111.416871,41.6313 C111.746389,41.3995111 112.065921,41.2685 112.415409,41.2685 C112.974591,41.2685 113.264167,41.5506778 113.264167,42.0142556 L113.264167,42.2057333 L112.225687,42.2057333 C111.476784,42.2057333 111.047412,42.5685333 111.047412,43.1228111 C111.047412,43.6770889 111.466798,44.1003556 112.125833,44.1003556 C112.625102,44.1003556 113.034503,43.9290333 113.284137,43.5863889 L113.284137,44.0802 L113.274152,44.0600444 Z M108.950482,40.8553111 C108.37133,40.8553111 107.931974,41.0871 107.722281,41.5909889 L107.722281,39.5754333 L107.252968,39.5754333 L107.252968,44.0701222 L107.722281,44.0701222 L107.722281,42.4979889 C107.722281,41.8127 108.121696,41.3390444 108.790716,41.3289667 C109.349898,41.3289667 109.689401,41.6615333 109.689401,42.2258889 L109.689401,44.0701222 L110.158713,44.0701222 L110.158713,42.1049556 C110.158713,41.3390444 109.719357,40.8653889 108.960468,40.8653889 M104.866462,40.8653889 C104.28731,40.8653889 103.857939,41.0971778 103.63826,41.6010667 L103.63826,39.5855111 L103.168947,39.5855111 L103.168947,44.0802 L103.63826,44.0802 L103.63826,42.5080667 C103.63826,41.8227778 104.037675,41.3491222 104.706696,41.3390444 C105.265877,41.3390444 105.60538,41.6716111 105.60538,42.2359667 L105.60538,44.0802 L106.074693,44.0802 L106.074693,42.1150333 C106.074693,41.3491222 105.635336,40.8754667 104.876447,40.8754667 M100.912251,40.8754667 C100.003582,40.8754667 99.3445468,41.5305222 99.3445468,42.4879111 C99.3445468,43.4453 99.9935965,44.1003556 100.912251,44.1003556 C101.461447,44.1003556 101.900804,43.8988 102.180395,43.5460778 L101.910789,43.2538222 C101.691111,43.5158444 101.351608,43.6670111 100.932222,43.6670111 C100.283173,43.6670111 99.8138596,43.1832778 99.8138596,42.4879111 C99.8138596,41.7925444 100.283173,41.3088111 100.932222,41.3088111 C101.311667,41.3088111 101.631199,41.4499 101.870848,41.6816889 L102.130468,41.3491222 C101.840892,41.0467889 101.421506,40.8754667 100.912251,40.8754667 M96.9780117,43.6871667 C96.538655,43.6871667 96.2490789,43.4553778 96.2490789,43.1026556 C96.2490789,42.7499333 96.5286696,42.5886889 97.0578947,42.5886889 L98.0464474,42.5886889 L98.0464474,42.9716444 C97.9266228,43.4150667 97.5172222,43.6871667 96.9879971,43.6871667 M98.0564327,44.0802 L98.5157602,44.0802 L98.5157602,41.9739444 C98.5057749,41.2886556 98.0764035,40.8754667 97.2875585,40.8754667 C96.748348,40.8754667 96.408845,41.0367111 95.9994444,41.3088111 L96.199152,41.6514556 C96.5286696,41.4196667 96.8482018,41.2886556 97.1976901,41.2886556 C97.7568713,41.2886556 98.0464474,41.5708333 98.0464474,42.0344111 L98.0464474,42.2258889 L97.0079678,42.2258889 C96.2590643,42.2258889 95.829693,42.5886889 95.829693,43.1429667 C95.829693,43.6972444 96.2490789,44.1205111 96.908114,44.1205111 C97.4173684,44.1205111 97.8167836,43.9491889 98.0664181,43.6065444 L98.0664181,44.1003556 L98.0564327,44.0802 Z M94.7612573,44.0802 L94.7612573,39.8374556 L94.2919444,39.8374556 L94.2919444,43.2437444 L91.7756287,39.8374556 L91.2763596,39.8374556 L91.2763596,44.0802 L91.7556579,44.0802 L91.7556579,40.6739111 L94.2719737,44.0802 L94.7612573,44.0802 Z M87.5518129,40.8855444 L87.0825,40.8855444 L87.0825,44.0802 L87.5518129,44.0802 L87.5518129,42.3871333 C87.6017398,41.7623111 88.0211257,41.3390444 88.6901462,41.3491222 L88.6901462,40.8754667 C88.1509357,40.8754667 87.7615058,41.1374889 87.5518129,41.6010667 L87.5518129,40.8956222 L87.5518129,40.8855444 Z M83.5776316,42.2762778 C83.6475292,41.6716111 84.0769006,41.2785778 84.6860088,41.2785778 C85.295117,41.2785778 85.7145029,41.6615333 85.7444591,42.2762778 L83.587617,42.2762778 L83.5776316,42.2762778 Z M84.6860088,40.8754667 C83.7673538,40.8754667 83.1183041,41.5305222 83.1183041,42.4879111 C83.1183041,43.4453 83.7573684,44.1003556 84.6860088,44.1003556 C85.2152339,44.1003556 85.6545906,43.9088778 85.954152,43.5662333 L85.6945322,43.2840556 C85.4448977,43.5460778 85.1053947,43.6871667 84.7159649,43.6871667 C84.1068567,43.6871667 83.6575146,43.2941333 83.5676462,42.6693111 L86.1438743,42.6693111 C86.1938012,41.5809111 85.6845468,40.8653889 84.666038,40.8754667 M79.1041813,40.3010333 L80.3124123,40.3010333 C81.251038,40.3010333 81.9999415,41.0064778 81.9999415,41.9638667 C81.9999415,42.9212556 81.2710088,43.6166222 80.332383,43.6166222 L79.1041813,43.6166222 L79.1041813,40.3010333 L79.1041813,40.3010333 Z M78.624883,39.8374556 L78.624883,44.0802 L80.3024269,44.0802 C81.540614,44.0802 82.4792398,43.1631222 82.4792398,41.9638667 C82.4792398,40.7646111 81.540614,39.8475333 80.3223977,39.8475333 L78.624883,39.8475333 L78.624883,39.8374556 Z" id="Shape" fill="#3C3C3B"></path>
          <path d="M-7.09503931e-15,44.5236222 C-7.09503931e-15,44.5236222 -7.09503931e-15,45.3802333 0.84875731,45.3802333 L6.93983918,45.3802333 C6.93983918,45.3802333 7.78859649,45.3802333 7.78859649,44.5236222 L7.78859649,44.3119889 C7.78859649,44.3119889 7.78859649,43.4453 6.93983918,43.4453 L0.84875731,43.4453 C0.84875731,43.4453 -7.09503931e-15,43.4453 -7.09503931e-15,44.3119889 L-7.09503931e-15,44.5236222" id="Path" fill="#FFFFFF"></path>
          <path d="M61.8694152,4.66601111 L61.8694152,4.45437778 C61.8694152,4.45437778 61.8694152,3.59776667 61.0106725,3.59776667 L58.2946491,3.59776667 L58.2946491,0.856611111 C58.2946491,0.856611111 58.2946491,1.34262971e-15 57.4458918,1.34262971e-15 L57.2361988,1.34262971e-15 C57.2361988,1.34262971e-15 56.3774561,1.34262971e-15 56.3774561,0.856611111 L56.3774561,3.59776667 L53.6614327,3.59776667 C53.6614327,3.59776667 52.8026901,3.59776667 52.8026901,4.45437778 L52.8026901,4.66601111 C52.8026901,4.66601111 52.8026901,5.5327 53.6614327,5.5327 L56.3774561,5.5327 L56.3774561,8.27385556 C56.3774561,8.27385556 56.3774561,9.13046667 57.2361988,9.13046667 L57.4458918,9.13046667 C57.4458918,9.13046667 58.2946491,9.13046667 58.2946491,8.27385556 L58.2946491,5.5327 L61.0106725,5.5327 C61.0106725,5.5327 61.8694152,5.5327 61.8694152,4.66601111" id="Path" fill="#FFFFFF"></path>
        </g>
      </g>
    </g>
  </g>
</svg>
